<?xml version="1.0" encoding="utf-8"?>
<!-- Svg Vector Icons : http://www.onlinewebfonts.com/icon -->
<!DOCTYPE svg PUBLIC "-//W3C//DTD SVG 1.1//EN" "http://www.w3.org/Graphics/SVG/1.1/DTD/svg11.dtd">
<svg version="1.1" xmlns="http://www.w3.org/2000/svg" xmlns:xlink="http://www.w3.org/1999/xlink" x="0px" y="0px" viewBox="0 0 256 256" enable-background="new 0 0 256 256" xml:space="preserve">
<metadata> Svg Vector Icons : http://www.onlinewebfonts.com/icon </metadata>
<g><g><path fill="#000000" d="M128,31.9c53,0,96.1,43.1,96.1,96.1S181,224.1,128,224.1S31.9,181,31.9,128S75,31.9,128,31.9 M128,10C62.8,10,10,62.8,10,128c0,65.2,52.8,118,118,118c65.2,0,118-52.8,118-118C246,62.8,193.2,10,128,10L128,10z"/><path fill="#000000" d="M166.7,185L73.3,91.6l18.1-18.1l93.3,93.3L166.7,185z"/><path fill="#000000" d="M91.4,185l-18.1-18.1l93.3-93.3l18.1,18.1L91.4,185z"/></g></g>
</svg>