<svg viewBox="0 0 202.3875 220.1612389380531" version="1.1" xmlns="http://www.w3.org/2000/svg" id="Livello_1" style="max-height: 500px" width="202.3875" height="220.1612389380531">
  
  <path d="M1.7,109.35c2.06,4.8,7.7,9.89,12.56,11.33,7.86,2.35,14.73-.67,22.02-3.84,4.18-1.82,8.5-3.71,13.12-4.57,18.56-3.48,32.1.21,38.1,10.37,6.99,11.85,2.41,31.06-11.4,47.8-2.35,2.84-5.31,5.34-8.18,7.75-7.32,6.16-14.89,12.53-11.87,24.71,3.05,12.29,13.85,16.44,22.61,15.1,8.96-1.38,18.23-8.78,17.43-21.78-.23-3.75-.75-7-1.25-10.15-.95-6-1.86-11.66-.54-19.74,2.9-17.81,11.8-30.23,23.81-33.21,11.14-2.77,23.32,3.28,33.41,16.59,2.79,3.68,4.6,7.8,6.35,11.78,1.4,3.19,2.72,6.2,4.49,8.91,7.12,10.93,19.01,11.7,27.05,7.79,7.14-3.48,13.94-12.06,9.59-24.81-3.98-11.67-12.51-12.57-20.76-13.44-2.95-.31-6.01-.63-8.95-1.42-18.43-4.91-31.96-16.33-33.67-28.41-1.41-9.99,4.9-19.52,18.27-27.56,7.83-4.71,13.39-5.48,19.83-6.38,3.43-.48,6.98-.97,11.16-2.11,12.86-3.5,17.23-14.19,15.85-23.23-1.31-8.56-8.35-17.55-20.93-17.09-11.88.45-16.37,10.02-20.72,19.28-1.53,3.25-3.1,6.6-4.96,9.4-9.36,14.09-23.16,22.37-33.59,20.17-8.19-1.73-13.71-9.63-15.96-22.84-1.94-11.4-.23-17.8,1.75-25.21,1.01-3.77,2.06-7.68,2.81-12.67,1.56-10.33-6.05-17.94-13.77-20.63-1.99-.69-4.23-1.15-6.56-1.23-6.07-.21-12.7,2.15-16.88,9.44-7.88,13.71-.96,21.37,6.36,29.47,2.85,3.16,5.8,6.42,8,10.18,8.69,14.92,10.38,31.21,4.2,40.56-4.81,7.27-14.05,10.27-26.75,8.67-11.2-1.41-16.59-4.67-23.41-8.79-2.58-1.56-5.25-3.17-8.53-4.88-8.79-4.59-18.82-3.53-25.54,2.71C.05,93.07-1.67,101.49,1.7,109.35Z"/>
  <g>
    <path d="M318.59,89.46c0-18.51-11.35-29.57-30.35-29.57h-63.93v92.58h31.7v-33.71h30.92c17.16,0,31.66-13.42,31.66-29.3ZM256.01,85.19h26.48c1.64,0,4.4.52,4.4,4.01,0,2.51-1.81,4.27-4.4,4.27h-26.48v-8.28Z"/>
    <path d="M385.08,59.89h-48.92l-26.77,91.86-.21.72h32.93l2.48-9.27h32.06l2.48,9.27h32.93l-26.86-92.17-.12-.4ZM369.82,117.64h-18.39l8.59-32.45h1.22l8.58,32.45Z"/>
    <polygon points="483.53 107.45 447.31 60.12 447.14 59.89 415.72 59.89 415.72 152.47 447.42 152.47 447.42 106.48 447.63 106.48 483.82 152.47 515.23 152.47 515.23 59.89 483.53 59.89 483.53 107.45"/>
    <path d="M581.04,59.89h-56.09v92.58h55.04c19.08,0,45.51-16.31,45.51-46.94s-22.91-45.64-44.46-45.64ZM556.65,85.19h14.07c15.15,0,22.83,6.8,22.83,20.21s-8.75,21.78-21.78,21.78h-15.11v-41.99Z"/>
    <polygon points="633.93 152.47 715.79 152.47 715.79 127.31 665.62 127.31 665.62 118.76 715.79 118.76 715.79 93.47 665.62 93.47 665.62 85.06 715.79 85.06 715.79 59.89 633.93 59.89 633.93 152.47"/>
    <polygon points="778.31 88.9 777.85 88.9 757.5 60.13 757.34 59.89 725.52 59.89 725.52 152.47 757.22 152.47 757.22 104.73 777.11 130.96 777.28 131.18 778.88 131.18 798.94 104.73 798.94 152.47 830.64 152.47 830.64 59.89 798.82 59.89 778.31 88.9"/>
    <rect height="92.58" width="31.7" y="59.89" x="841.02"/>
    <path d="M941.37,116.46l-.39.46c-3,3.53-7.42,5.55-12.11,5.55-8.98,0-16.29-7.37-16.29-16.42s7.31-16.29,16.29-16.29c4.77,0,9.28,2.07,12.38,5.68l.4.46,22.11-22.38-.38-.4c-9.18-9.46-21.44-14.67-34.51-14.67-26.32,0-47.73,21.35-47.73,47.59s21.41,47.73,47.73,47.73c12.88,0,25.45-5.35,34.51-14.67l.39-.4-22.39-22.25Z"/>
  </g>
</svg>